<?xml version="1.0" encoding="utf-8"?>
<!-- Generator: Adobe Illustrator 23.0.3, SVG Export Plug-In . SVG Version: 6.00 Build 0)  -->
<svg version="1.1" id="Layer_1" xmlns="http://www.w3.org/2000/svg" xmlns:xlink="http://www.w3.org/1999/xlink" x="0px" y="0px"
	 viewBox="0 0 1080 1080" style="enable-background:new 0 0 1080 1080;" xml:space="preserve">
<style type="text/css">
	.st0{fill:#292929;}
</style>
<g>
	<polygon class="st0" points="839.8,236.95 839.8,34.56 729.25,34.56 673.97,34.56 563.42,34.56 563.43,285.78 729.67,351.48 
		729.25,541.82 673.97,541.83 673.97,394.83 341.62,263.49 341.62,136.01 396.89,136.01 396.89,219.86 507.45,263.49 507.45,34.56 
		231.07,34.56 231.07,643.29 396.9,643.29 507.45,643.29 507.45,487.03 396.89,443.35 396.91,541.83 341.62,541.83 341.62,356.04 
		564.09,443.95 563.42,643.29 839.8,643.29 839.8,302.43 673.97,236.95 673.97,136.01 729.24,136.01 729.24,193.33 	"/>
	<g>
		<path class="st0" d="M109.8,747.88h66.93v18.99h-44.52v29.26h37.36v18.99h-37.36v22.73h45.92v18.99H109.8V747.88z"/>
		<path class="st0" d="M231.02,747.88h22.42v89.97h43.74v18.99h-66.16V747.88z"/>
		<path class="st0" d="M346.17,747.88h66.93v18.99h-44.52v29.26h37.36v18.99h-37.36v22.73h45.92v18.99h-68.33V747.88z"/>
		<path class="st0" d="M544.6,771.07c-8.56-4.2-16.66-5.76-26.31-5.76c-20.39,0-35.96,14.16-35.96,37.05
			c0,23.35,17.59,37.2,38.45,37.2c4.67,0,9.81-0.47,13.39-1.71v-18.37h-22.1v-18.99h44.52v51.21c-11.21,5.14-23.5,7-36.58,7
			c-35.02,0-60.4-22.88-60.4-56.35c0-32.22,24.13-56.35,59.15-56.35c12.3,0,23.35,2.33,32.69,7.32L544.6,771.07z"/>
		<path class="st0" d="M674.38,840.65h-47.01l-6.23,16.19H597.8l44.05-108.96h18.06l44.05,108.96H680.6L674.38,840.65z
			 M634.53,821.97h32.69l-16.34-42.34L634.53,821.97z"/>
		<path class="st0" d="M749.06,747.88h16.5l51.83,68.33v-68.33h22.42v108.96h-16.5l-51.83-68.49v68.49h-22.42V747.88z"/>
		<path class="st0" d="M918.68,766.87h-29.11v-18.99h80.63v18.99h-29.11v89.97h-22.41V766.87z"/>
		<path class="st0" d="M228.14,962.32c0-17.59,12.45-29.57,35.02-29.57c10.43,0,21.17,2.8,29.26,7.63l-6.85,17.75
			c-5.6-3.74-13.07-6.07-20.23-6.07c-9.81,0-14.48,3.58-14.48,9.18c0,6.07,4.05,9.73,18.84,16.5c19.07,8.72,28.17,18.37,28.17,34.71
			c0,20.08-13.7,33-39.38,33c-11.36,0-23.5-3.27-32.69-8.87l6.85-18.06c7.01,4.83,16.5,7.63,24.91,7.63
			c10.9,0,17.59-4.36,17.59-11.91c0-8.02-5.68-12.53-19.07-18.37C234.45,986.45,228.14,976.41,228.14,962.32z"/>
		<path class="st0" d="M368.2,953.6h-29.11v-18.99h80.63v18.99h-29.11v89.97H368.2V953.6z"/>
		<path class="st0" d="M520.09,932.75c32.69,0,58.37,23.35,58.37,56.35s-25.68,56.35-58.37,56.35c-32.69,0-58.37-23.35-58.37-56.35
			S487.4,932.75,520.09,932.75z M520.09,1026.14c19.77,0,35.65-15.1,35.65-37.05s-15.88-37.05-35.65-37.05
			c-19.77,0-35.65,15.1-35.65,37.05S500.32,1026.14,520.09,1026.14z"/>
		<path class="st0" d="M628.22,934.61h16.5l51.84,68.33v-68.33h22.41v108.96h-16.5l-51.83-68.49v68.49h-22.42V934.61z"/>
		<path class="st0" d="M776.52,934.61h66.93v18.99h-44.52v29.26h37.36v18.99h-37.36v22.73h45.92v18.99h-68.33V934.61z"/>
	</g>
</g>
</svg>
